<?xml version="1.0" encoding="UTF-8"?>
<svg width="272px" height="57px" viewBox="0 0 272 57" version="1.1" xmlns="http://www.w3.org/2000/svg" xmlns:xlink="http://www.w3.org/1999/xlink">
    <!-- Generator: Sketch 53.2 (72643) - https://sketchapp.com -->
    <title>Group 213</title>
    <desc>Created with Sketch.</desc>
    <g id="Page-1" stroke="none" stroke-width="1" fill="none" fill-rule="evenodd">
        <g id="Group-213" fill="#FFFFFF">
            <path d="M69.9098,51.6724 L62.2728,40.6704 L62.1678,40.6074 L59.4058,40.6074 L59.4058,51.6724 L52.6338,51.6724 L52.6328,13.4424 L59.4028,13.4424 L59.4028,34.5824 L62.3358,34.5824 L62.3708,34.5384 C63.5908,32.9574 64.8418,31.3434 66.0988,29.7224 L66.8398,28.7664 C67.9828,27.2914 69.1208,25.8244 70.1938,24.4324 L78.3098,24.4324 C77.7958,25.0724 76.8028,26.2874 76.2248,26.9864 C75.7288,27.5854 75.2368,28.1894 74.7448,28.7934 L68.0488,37.4504 L78.0918,51.6724 L69.9098,51.6724 Z" id="Fill-197"></path>
            <path d="M154.511,52.2454 C146.173,52.2454 140.122,46.3274 140.122,38.1754 C140.122,30.0144 146.311,23.8594 154.518,23.8594 C162.693,23.8594 168.857,30.0144 168.857,38.1754 C168.857,46.3274 162.823,52.2454 154.511,52.2454 M154.518,30.3464 C150.294,30.3464 146.986,33.7844 146.986,38.1754 C146.986,42.5074 150.224,45.7744 154.518,45.7744 C158.825,45.7744 162.073,42.5074 162.073,38.1754 C162.073,33.8574 158.684,30.3464 154.518,30.3464" id="Fill-194"></path>
            <polygon id="Fill-196" points="235.315 51.672 242.078 51.672 242.078 13.442 235.315 13.442"></polygon>
            <path d="M259.7177,52.2454 C251.5197,52.2454 245.7947,46.4214 245.7947,38.0814 C245.7947,29.9734 251.3487,23.8594 258.7127,23.8594 C266.0827,23.8594 271.4317,29.7194 271.4317,37.7934 C271.4317,38.4854 271.3377,39.6094 271.2507,40.2014 L252.3387,40.1974 L252.3547,40.3274 C252.8147,44.0814 255.7867,46.7034 259.5807,46.7034 C262.3967,46.7034 264.6507,45.7154 267.0967,43.4034 L270.4937,47.5224 C268.0127,50.4374 263.8937,52.2454 259.7177,52.2454 M258.7127,29.3384 C255.7467,29.3384 253.0247,31.6254 252.6427,34.4374 C252.6067,34.7074 252.5947,34.9284 252.5947,34.9284 L252.5877,35.0504 L264.6977,35.0504 L264.7077,34.9454 C264.7077,34.9454 264.7237,34.7874 264.6927,34.4494 C264.4697,32.0314 261.9587,29.3384 258.7127,29.3384" id="Fill-199"></path>
            <path d="M186.0492,52.2454 C177.7112,52.2454 171.6602,46.3274 171.6602,38.1754 C171.6602,30.0144 177.8492,23.8594 186.0562,23.8594 C194.2302,23.8594 200.3952,30.0144 200.3952,38.1754 C200.3952,46.3274 194.3612,52.2454 186.0492,52.2454 M186.0562,30.3464 C181.8322,30.3464 178.5242,33.7844 178.5242,38.1754 C178.5242,42.5074 181.7622,45.7744 186.0562,45.7744 C190.3632,45.7744 193.6112,42.5074 193.6112,38.1754 C193.6112,33.8574 190.2222,30.3464 186.0562,30.3464" id="Fill-201"></path>
            <path d="M90.4836,52.2478 C83.1216,52.2478 77.3546,46.0248 77.3546,38.0808 C77.3546,30.1048 83.1216,23.8568 90.4836,23.8568 C93.7946,23.8568 96.5336,25.1818 98.2486,26.2948 L98.4266,26.4098 L98.4266,24.4328 L105.1946,24.4328 L105.1946,51.6768 L98.4266,51.6768 L98.4266,49.5678 L98.2486,49.6828 C95.6236,51.3848 93.0116,52.2478 90.4836,52.2478 M91.6266,30.4248 C87.4236,30.4248 84.2546,33.7158 84.2546,38.0808 C84.2546,42.4138 87.4236,45.6808 91.6266,45.6808 C94.6476,45.6808 96.8656,44.6188 98.4056,42.4328 L98.4266,33.7398 C96.8656,31.4868 94.6476,30.4248 91.6266,30.4248" id="Fill-203"></path>
            <path d="M124.2971,52.2478 C121.7691,52.2478 119.1571,51.3848 116.5321,49.6828 L116.3541,49.5678 L116.3541,51.6768 L109.5861,51.6768 L109.5861,13.4838 L116.3541,13.4838 L116.3541,26.4098 L116.5321,26.2948 C118.2471,25.1818 120.9861,23.8568 124.2971,23.8568 C131.6591,23.8568 137.4251,30.1048 137.4251,38.0808 C137.4251,46.0248 131.6591,52.2478 124.2971,52.2478 M123.1541,30.4248 C120.1331,30.4248 117.9161,31.4868 116.3751,33.6728 L116.3541,42.3658 C117.9161,44.6188 120.1331,45.6808 123.1541,45.6808 C127.3571,45.6808 130.5261,42.4138 130.5261,38.0808 C130.5261,33.7158 127.3571,30.4248 123.1541,30.4248" id="Fill-205"></path>
            <path d="M216.248,52.2478 C208.886,52.2478 203.12,46.0248 203.12,38.0808 C203.12,30.1048 208.886,23.8568 216.248,23.8568 C219.559,23.8568 222.298,25.1818 224.013,26.2948 L224.191,26.4098 L224.191,13.4838 L230.959,13.4838 L230.959,51.6768 L224.191,51.6768 L224.191,49.5678 L224.013,49.6828 C221.39,51.3848 218.777,52.2478 216.248,52.2478 M217.392,30.4248 C213.189,30.4248 210.02,33.7158 210.02,38.0808 C210.02,42.4138 213.189,45.6808 217.392,45.6808 C220.412,45.6808 222.629,44.6188 224.17,42.4328 L224.191,33.7398 C222.629,31.4868 220.412,30.4248 217.392,30.4248" id="Fill-207"></path>
            <path d="M18.7146,29.9688 C21.3816,33.9298 24.5996,37.4658 28.1976,40.6098 C29.9946,42.1898 31.8566,43.7048 33.7576,45.2848 C34.7036,46.0838 35.6586,46.9028 36.5766,47.8598 C37.0346,48.3368 37.4836,48.8528 37.8926,49.4438 C37.9986,49.5848 38.0926,49.7458 38.1906,49.8998 C38.2796,50.0358 38.4036,50.2458 38.4986,50.4668 C38.6946,50.8988 38.8176,51.3678 38.8576,51.8488 C38.9416,52.8048 38.6806,53.8318 38.0406,54.6428 C37.4116,55.4648 36.4176,55.9618 35.5096,56.0868 C35.0526,56.1568 34.6116,56.1538 34.1966,56.1088 C33.7956,56.0628 33.4996,56.0068 33.1606,55.9408 C32.5056,55.8088 31.8746,55.6458 31.2566,55.4648 C28.7916,54.7318 26.4836,53.7478 24.2326,52.6418 C21.9886,51.5278 19.8166,50.2738 17.7366,48.8508 C15.6636,47.4218 13.6656,45.8398 11.8946,43.9268 C11.0116,42.9698 10.1856,41.9268 9.4986,40.7388 C8.8166,39.5558 8.2626,38.2018 8.1126,36.6948 C8.0726,36.3108 8.0586,35.9698 8.0896,35.4968 C8.1346,35.0668 8.2146,34.6538 8.3346,34.2848 C8.5656,33.5348 8.8896,32.8898 9.2416,32.2948 C9.9506,31.1058 10.7776,30.0978 11.6346,29.1428 C13.3596,27.2468 15.2326,25.5908 17.1556,24.0128 C19.0826,22.4418 21.0686,20.9668 23.0966,19.5548 C25.1276,18.1468 27.1946,16.7988 29.3376,15.5338 C30.4196,14.9028 31.4826,14.2908 32.7016,13.7278 C33.0246,13.5878 33.3156,13.4468 33.8096,13.3138 C34.2866,13.2028 34.7926,13.1528 35.3006,13.2258 C36.3146,13.3578 37.2696,13.9188 37.8746,14.7668 C38.4906,15.6078 38.7066,16.7658 38.4556,17.7548 C38.4056,18.0028 38.3046,18.2368 38.2236,18.4528 L38.0146,18.9008 C37.8776,19.2038 37.7326,19.4938 37.5816,19.7748 C36.9896,20.9148 36.3526,21.9908 35.6906,23.0448 C34.3726,25.1558 32.9726,27.1838 31.5346,29.1808 C28.6556,33.1698 25.6266,37.0308 22.4686,40.7928 C19.2976,44.5468 16.0316,48.2178 12.4026,51.6408 C11.4786,52.4868 10.5486,53.3268 9.5286,54.1158 C9.0126,54.5078 8.4946,54.8968 7.9136,55.2588 C7.3386,55.6158 6.7246,55.9798 5.9216,56.2408 C5.1416,56.4758 4.1476,56.6268 3.0916,56.2068 C2.5756,55.9978 2.0996,55.6418 1.7536,55.2208 C1.4076,54.7978 1.2026,54.3428 1.0536,53.9028 C0.9976,53.6898 0.9276,53.4658 0.9016,53.2608 L0.8526,52.9478 L0.8266,52.7048 L0.7376,51.7578 C0.6856,51.1298 0.6496,50.5088 0.6156,49.8878 C0.3836,44.9368 0.4456,40.0498 0.5606,35.1518 C0.6876,30.2578 0.9096,25.3708 1.2456,20.4818 C1.4156,18.0378 1.6136,15.5938 1.8666,13.1458 C2.1276,10.6948 2.4116,8.2548 2.9096,5.7588 C3.0386,5.1318 3.1816,4.5038 3.3856,3.8388 C3.4876,3.5078 3.6096,3.1618 3.7826,2.7818 L3.9436,2.4728 C4.0016,2.3668 4.0936,2.2348 4.1726,2.1208 C4.3146,1.9408 4.4326,1.7998 4.5776,1.6408 C4.8746,1.3348 5.2076,1.0348 5.6396,0.7868 C6.0696,0.5418 6.5876,0.3528 7.1536,0.3098 C7.7176,0.2628 8.3016,0.3748 8.7966,0.6028 C9.2956,0.8288 9.7116,1.1568 10.0446,1.5378 C10.6886,2.3158 10.9426,3.0348 11.1636,3.7168 C11.3736,4.3998 11.5026,5.0498 11.6096,5.6878 C11.8136,6.9598 11.9316,8.1838 12.0626,9.3948 C12.5386,14.2138 13.2666,18.9108 15.0726,23.2718 C15.3266,23.8878 15.0346,24.5938 14.4186,24.8488 C13.8166,25.0978 13.1286,24.8238 12.8596,24.2368 L12.8556,24.2278 C10.7516,19.6218 9.8056,14.5938 9.1566,9.7548 C8.9846,8.5498 8.8196,7.3518 8.6036,6.2228 C8.4936,5.6628 8.3716,5.1178 8.2216,4.6358 C8.0816,4.1608 7.8646,3.7268 7.7216,3.5658 C7.5726,3.4038 7.4546,3.3758 7.3866,3.3848 C7.3116,3.3808 7.0856,3.4738 6.8236,3.7528 L6.6396,3.9708 C6.6376,3.9848 6.6366,3.9748 6.6216,4.0018 L6.5706,4.0978 C6.4936,4.2738 6.4066,4.5008 6.3306,4.7528 C6.1766,5.2528 6.0456,5.8138 5.9296,6.3798 C5.4726,8.6638 5.1866,11.0708 4.9336,13.4638 C4.6856,15.8638 4.4896,18.2778 4.3216,20.6948 C3.9896,25.5308 3.7686,30.3818 3.6426,35.2308 C3.5276,40.0758 3.4696,44.9418 3.6946,49.7288 C3.7266,50.3248 3.7616,50.9198 3.8106,51.5068 L3.8916,52.3788 L3.9146,52.5898 L3.9376,52.7278 C3.9456,52.8268 3.9786,52.8918 3.9936,52.9738 C4.0436,53.1088 4.0936,53.2158 4.1366,53.2648 C4.1826,53.3118 4.2066,53.3288 4.2546,53.3518 C4.3386,53.3978 4.6346,53.4168 5.0046,53.2978 C5.3636,53.1838 5.8186,52.9378 6.2726,52.6498 C6.7276,52.3678 7.1846,52.0248 7.6386,51.6808 C8.5466,50.9788 9.4276,50.1848 10.3006,49.3858 C13.7656,46.1198 16.9946,42.4998 20.1096,38.8098 C23.2186,35.1068 26.2096,31.2938 29.0336,27.3798 C30.4436,25.4228 31.8136,23.4368 33.0766,21.4138 C33.7106,20.4048 34.3136,19.3808 34.8446,18.3588 C34.9826,18.1028 35.1096,17.8478 35.2236,17.5948 L35.4016,17.2158 C35.4186,17.1438 35.4516,17.0998 35.4556,17.0478 C35.5006,16.8508 35.4676,16.7098 35.3676,16.5598 C35.2626,16.4148 35.0866,16.3048 34.8916,16.2798 C34.7946,16.2618 34.6866,16.2808 34.5696,16.2998 C34.4746,16.3208 34.2046,16.4288 33.9716,16.5348 C32.9766,16.9928 31.9216,17.5918 30.9006,18.1898 C28.8466,19.4018 26.8276,20.7168 24.8546,22.0858 C22.8836,23.4578 20.9546,24.8908 19.1046,26.3998 C17.2606,27.9108 15.4756,29.4968 13.9206,31.2088 C13.1496,32.0628 12.4316,32.9558 11.8936,33.8638 C11.6246,34.3148 11.4066,34.7718 11.2806,35.1868 C11.1456,35.6308 11.1306,35.8708 11.1776,36.3888 C11.3606,38.2588 12.6346,40.1918 14.1586,41.8378 C15.7006,43.5068 17.5426,44.9778 19.4786,46.3098 C21.4216,47.6398 23.4796,48.8298 25.5996,49.8818 C27.7196,50.9258 29.9146,51.8538 32.1226,52.5088 C32.6736,52.6708 33.2246,52.8118 33.7636,52.9198 C34.0216,52.9718 34.3256,53.0248 34.5306,53.0468 C34.7206,53.0678 34.8936,53.0648 35.0386,53.0428 C35.3326,52.9948 35.4986,52.8898 35.6176,52.7408 C35.7376,52.5928 35.8106,52.3608 35.7876,52.1048 C35.8326,51.7498 35.0906,50.7188 34.3606,49.9448 C33.6056,49.1288 32.7226,48.3408 31.8196,47.5548 C30.0046,45.9818 28.0816,44.4218 26.2826,42.7128 C22.6576,39.3158 19.3926,35.4678 16.7586,31.2418 L16.7566,31.2378 C16.4156,30.6908 16.5826,29.9708 17.1296,29.6298 C17.6646,29.2968 18.3646,29.4508 18.7146,29.9688" id="Fill-209"></path>
        </g>
    </g>
</svg>