<svg id="Layer_1" data-name="Layer 1" xmlns="http://www.w3.org/2000/svg" viewBox="0 0 398.27 83.62"><defs><style>.cls-1{fill:#fff;}</style></defs><title>KAB_LOGO-RGB-HORIZ-WHITE</title><path class="cls-1" d="M226.29,76.71c-12.2,0-21-8.66-21-20.58s9-20.94,21.06-20.94a20.5,20.5,0,0,1,21,20.94C247.27,68.05,238.44,76.71,226.29,76.71Zm0-32a11.12,11.12,0,0,0-11,11.45,11,11,0,1,0,22.07,0A11.27,11.27,0,0,0,226.3,44.68Z"/><rect class="cls-1" x="344.47" y="19.96" width="9.89" height="55.91"/><path class="cls-1" d="M102.56,75.87,91.39,59.78l-.16-.09h-4V75.87h-9.9V20h9.9V50.87h4.29l0-.06c1.78-2.31,3.61-4.67,5.45-7l1.09-1.4L103,36h11.87c-.75.94-2.2,2.71-3,3.73l-2.16,2.65-9.8,12.66,14.69,20.8Z"/><path class="cls-1" d="M380.16,76.71c-12,0-20.37-8.52-20.37-20.72,0-11.86,8.12-20.8,18.9-20.8s18.6,8.57,18.6,20.38a29.45,29.45,0,0,1-.27,3.52H369.36l0,.19A10.39,10.39,0,0,0,380,68.6c4.11,0,7.41-1.44,11-4.82l5,6A21.08,21.08,0,0,1,380.16,76.71Zm-1.47-33.5a9.07,9.07,0,0,0-8.88,7.45c-.05.4-.07.72-.07.72v.18h17.71v-.15a3.64,3.64,0,0,0,0-.73C387.1,47.14,383.43,43.21,378.69,43.21Z"/><path class="cls-1" d="M272.41,76.71c-12.19,0-21-8.66-21-20.58s9.05-20.94,21.05-20.94a20.49,20.49,0,0,1,21,20.94C293.39,68.05,284.57,76.71,272.41,76.71Zm0-32a11.12,11.12,0,0,0-11,11.45,11,11,0,1,0,22.06,0A11.26,11.26,0,0,0,272.42,44.68Z"/><path class="cls-1" d="M132.65,76.71c-10.77,0-19.21-9.1-19.21-20.72s8.44-20.8,19.21-20.8A21.21,21.21,0,0,1,144,38.75l.26.17V36h9.9V75.87h-9.9V72.79L144,73A20.92,20.92,0,0,1,132.65,76.71Zm1.67-31.92c-6.15,0-10.78,4.82-10.78,11.2s4.63,11.12,10.78,11.12c4.41,0,7.66-1.56,9.91-4.75l0-12.72C142,46.35,138.74,44.79,134.32,44.79Z"/><path class="cls-1" d="M182.1,76.71A20.93,20.93,0,0,1,170.74,73l-.26-.17v3.08h-9.9V20h9.9v18.9l.26-.17a21.24,21.24,0,0,1,11.36-3.56c10.77,0,19.2,9.14,19.2,20.8S192.87,76.71,182.1,76.71Zm-1.67-31.92c-4.42,0-7.66,1.56-9.92,4.75l0,12.72c2.29,3.29,5.53,4.85,10,4.85,6.14,0,10.78-4.78,10.78-11.12S186.57,44.79,180.43,44.79Z"/><path class="cls-1" d="M316.58,76.71c-10.77,0-19.2-9.1-19.2-20.72s8.43-20.8,19.2-20.8a21.24,21.24,0,0,1,11.36,3.56l.26.17V20h9.89V75.87H328.2V72.79l-.26.17A20.93,20.93,0,0,1,316.58,76.71Zm1.67-31.92c-6.14,0-10.78,4.82-10.78,11.2s4.64,11.12,10.78,11.12c4.42,0,7.66-1.56,9.92-4.75l0-12.72C325.91,46.35,322.67,44.79,318.25,44.79Z"/><path class="cls-1" d="M27.68,44.13A80.49,80.49,0,0,0,41.55,59.69c2.63,2.31,5.35,4.53,8.13,6.84a52.7,52.7,0,0,1,4.12,3.76,19.46,19.46,0,0,1,1.93,2.32c.15.21.29.44.44.67a6.64,6.64,0,0,1,.45.83,6.27,6.27,0,0,1,.52,2A5.84,5.84,0,0,1,56,80.21a5.77,5.77,0,0,1-3.71,2.11,7.31,7.31,0,0,1-1.92,0c-.58-.07-1-.15-1.51-.25-1-.19-1.88-.43-2.79-.69a66.35,66.35,0,0,1-10.27-4.13,79.27,79.27,0,0,1-9.5-5.55,50.48,50.48,0,0,1-8.54-7.2,26.57,26.57,0,0,1-3.51-4.66,14.93,14.93,0,0,1-2-5.92,11.06,11.06,0,0,1,0-1.75,8.67,8.67,0,0,1,.36-1.77,13.19,13.19,0,0,1,1.33-2.91,28.79,28.79,0,0,1,3.5-4.61,74.79,74.79,0,0,1,8.07-7.5c2.82-2.3,5.72-4.46,8.69-6.52s6-4,9.13-5.88c1.58-.93,3.14-1.82,4.92-2.65a9.89,9.89,0,0,1,1.62-.6,5.88,5.88,0,0,1,2.18-.13,5.52,5.52,0,0,1,3.76,2.25,5.38,5.38,0,0,1,.85,4.37,5.81,5.81,0,0,1-.34,1l-.3.66c-.2.44-.42.87-.64,1.28-.86,1.66-1.79,3.24-2.76,4.78-1.93,3.09-4,6-6.08,9q-6.32,8.76-13.26,17A189.47,189.47,0,0,1,18.45,75.82c-1.35,1.24-2.71,2.47-4.2,3.62a27.79,27.79,0,0,1-2.37,1.67A12.53,12.53,0,0,1,9,82.55a6.13,6.13,0,0,1-4.14,0,5,5,0,0,1-1.95-1.44,6.05,6.05,0,0,1-1-1.93,8.48,8.48,0,0,1-.22-.94l-.07-.46,0-.35L1.39,76c-.08-.92-.13-1.82-.18-2.73C.87,66,1,58.87,1.13,51.71s.51-14.31,1-21.46c.25-3.57.54-7.15.91-10.73s.8-7.15,1.53-10.8a26.69,26.69,0,0,1,.69-2.81,13.08,13.08,0,0,1,.58-1.54l.24-.46c.08-.15.22-.34.33-.51s.38-.47.59-.7A7.07,7.07,0,0,1,8.56,1.45a5.28,5.28,0,0,1,2.21-.7,4.82,4.82,0,0,1,2.41.43A5.43,5.43,0,0,1,15,2.55a8.87,8.87,0,0,1,1.64,3.18,23.71,23.71,0,0,1,.65,2.89c.3,1.86.47,3.65.66,5.42.7,7.05,1.76,13.91,4.4,20.29a1.76,1.76,0,0,1-3.23,1.41h0C16,29,14.65,21.64,13.7,14.56c-.25-1.76-.49-3.51-.81-5.16a22,22,0,0,0-.56-2.32,4.81,4.81,0,0,0-.73-1.57c-.21-.24-.39-.28-.49-.26a1.44,1.44,0,0,0-.82.54L10,6.1s0,0,0,.05l-.07.14a9.19,9.19,0,0,0-.35,1A24.35,24.35,0,0,0,9,9.63C8.31,13,7.9,16.49,7.53,20s-.65,7-.9,10.57q-.74,10.62-1,21.26C5.47,58.91,5.38,66,5.71,73c0,.87.1,1.74.17,2.6L6,76.9l0,.31,0,.2a2.78,2.78,0,0,0,.08.36,1.54,1.54,0,0,0,.21.43.64.64,0,0,0,.17.13,1.9,1.9,0,0,0,1.1-.08,9.06,9.06,0,0,0,1.85-1c.67-.41,1.34-.92,2-1.42,1.33-1,2.62-2.19,3.9-3.35A188.2,188.2,0,0,0,29.72,57.06c4.55-5.42,8.92-11,13.05-16.72,2.06-2.86,4.07-5.77,5.92-8.73.92-1.47,1.81-3,2.58-4.46.2-.38.39-.75.56-1.12l.26-.56c0-.1.07-.16.08-.24a.86.86,0,0,0-.13-.71,1,1,0,0,0-.7-.41,1.28,1.28,0,0,0-.47,0,6.28,6.28,0,0,0-.88.34c-1.45.67-3,1.54-4.49,2.42-3,1.77-6,3.7-8.84,5.7s-5.7,4.1-8.41,6.31a70.63,70.63,0,0,0-7.58,7,25.51,25.51,0,0,0-3,3.88,8.94,8.94,0,0,0-.89,1.94,3.78,3.78,0,0,0-.15,1.76c.27,2.73,2.13,5.56,4.36,8A46.15,46.15,0,0,0,28.8,68a75.18,75.18,0,0,0,9,5.22,61.17,61.17,0,0,0,9.54,3.84c.81.24,1.61.45,2.4.6.38.08.82.16,1.12.19a2.65,2.65,0,0,0,.75,0,1.21,1.21,0,0,0,.84-.44,1.29,1.29,0,0,0,.25-.93c.07-.52-1-2-2.09-3.16a48.09,48.09,0,0,0-3.71-3.49c-2.66-2.3-5.47-4.58-8.1-7.09A84,84,0,0,1,24.82,46h0a1.7,1.7,0,0,1,2.86-1.85Z"/></svg>